<svg viewBox="0 0 32 32" fill="none" xmlns="http://www.w3.org/2000/svg">
  <defs>
    <!-- Mountain gradient (white to cyan) -->
    <linearGradient id="mountain" x1="16" y1="4" x2="16" y2="14" gradientUnits="userSpaceOnUse">
      <stop offset="0%" stop-color="#FFFFFF"/>
      <stop offset="100%" stop-color="#00D9FF"/>
    </linearGradient>

    <!-- Flow gradient (cyan gradient) -->
    <linearGradient id="flow" x1="16" y1="14" x2="16" y2="28" gradientUnits="userSpaceOnUse">
      <stop offset="0%" stop-color="#00E5FF"/>
      <stop offset="50%" stop-color="#00D9FF"/>
      <stop offset="100%" stop-color="#00B8D4"/>
    </linearGradient>
  </defs>

  <!-- Mountain peaks (geometric, clear) -->
  <path d="M8 14 L12 6 L16 10 L20 6 L24 14 Z"
        fill="url(#mountain)"
        stroke="#00D9FF"
        stroke-width="1"
        stroke-linejoin="round"/>

  <!-- Flowing snow stream (spiral/wave pattern) -->
  <path d="M16 14
           C18 16, 20 17, 19 19
           C18 21, 15 21, 14 23
           C13 25, 15 27, 16 28
           M16 14
           C14 16, 12 17, 13 19
           C14 21, 17 21, 18 23
           C19 25, 17 27, 16 28"
        stroke="url(#flow)"
        stroke-width="2.5"
        stroke-linecap="round"
        fill="none"
        opacity="0.9"/>

  <!-- Snow particles flowing down -->
  <circle cx="12" cy="18" r="1" fill="#00E5FF" opacity="0.6"/>
  <circle cx="20" cy="20" r="1" fill="#00D9FF" opacity="0.6"/>
  <circle cx="14" cy="24" r="0.8" fill="#00E5FF" opacity="0.5"/>
  <circle cx="18" cy="26" r="0.8" fill="#00D9FF" opacity="0.5"/>
</svg>
